<svg width="80" height="80" viewBox="0 0 80 80" fill="none" xmlns="http://www.w3.org/2000/svg">
<g id="handshake">
<mask id="mask0_39_1334" style="mask-type:alpha" maskUnits="userSpaceOnUse" x="0" y="0" width="80" height="80">
<rect id="Bounding box" width="80" height="80" fill="#D9D9D9"/>
</mask>
<g mask="url(#mask0_39_1334)">
<path id="handshake_2" d="M39.0062 66.4745C39.4421 66.4745 39.8887 66.3763 40.346 66.1797C40.8032 65.9831 41.1729 65.7438 41.4549 65.4618L67.4421 39.4745C68.2797 38.6369 68.9261 37.7801 69.3812 36.904C69.8363 36.028 70.0639 35.0665 70.0639 34.0195C70.0639 32.9596 69.8363 31.9308 69.3812 30.9329C68.9261 29.935 68.2797 29.0237 67.4421 28.199L54.9421 15.699C54.1173 14.8613 53.2701 14.247 52.4005 13.856C51.5308 13.465 50.5661 13.2695 49.5062 13.2695C48.4592 13.2695 47.487 13.465 46.5896 13.856C45.6921 14.247 44.8459 14.8613 44.0511 15.699L41.1472 18.6028L47.3139 24.7886C47.9763 25.4382 48.4699 26.1776 48.7947 27.0066C49.1195 27.8357 49.2819 28.6776 49.2819 29.5323C49.2819 31.2673 48.7146 32.7021 47.58 33.8367C46.4454 34.9714 45.0105 35.5387 43.2755 35.5387C42.4207 35.5387 41.5863 35.4083 40.7722 35.1476C39.9581 34.887 39.2263 34.4319 38.5767 33.7823L32.1986 27.4233L17.8075 41.8143C17.4699 42.1519 17.2167 42.5355 17.0479 42.965C16.879 43.3945 16.7946 43.8272 16.7946 44.263C16.7946 45.0494 17.0468 45.6979 17.551 46.2085C18.0553 46.7192 18.7006 46.9745 19.487 46.9745C19.9229 46.9745 20.3694 46.8763 20.8267 46.6797C21.284 46.4831 21.6537 46.2438 21.9357 45.9617L32.4998 35.3976L34.8588 37.7566L24.3139 48.3207C23.9763 48.6583 23.7231 49.0419 23.5543 49.4714C23.3855 49.9009 23.301 50.3336 23.301 50.7695C23.301 51.513 23.5639 52.1476 24.0896 52.6733C24.6152 53.1989 25.2498 53.4617 25.9934 53.4617C26.4293 53.4617 26.8759 53.3634 27.3331 53.1669C27.7904 52.9703 28.1601 52.731 28.4421 52.449L39.7755 41.1348L42.1344 43.4938L30.8203 54.8271C30.5255 55.1092 30.2829 55.4789 30.0927 55.9361C29.9025 56.3934 29.8075 56.84 29.8075 57.2759C29.8075 58.0194 30.0703 58.654 30.596 59.1797C31.1216 59.7053 31.7562 59.9681 32.4998 59.9681C32.9357 59.9681 33.3684 59.8837 33.7979 59.715C34.2274 59.5461 34.6109 59.2929 34.9486 58.9554L46.2819 47.6412L48.6408 50.0002L37.3075 61.3335C36.9699 61.6712 36.7167 62.0761 36.5479 62.5483C36.3791 63.0205 36.2947 63.4532 36.2947 63.8464C36.2947 64.6327 36.5714 65.2673 37.1248 65.7502C37.6782 66.2331 38.3054 66.4745 39.0062 66.4745ZM38.987 69.808C37.2733 69.808 35.8064 69.1808 34.5863 67.9265C33.3662 66.6723 32.831 65.1242 32.9806 63.2823C31.0917 63.3036 29.519 62.7395 28.2626 61.59C27.0062 60.4404 26.41 58.8357 26.4741 56.7759C24.4143 56.7972 22.7914 56.2085 21.6055 55.0099C20.4197 53.8112 19.8801 52.231 19.987 50.2695C18.1322 50.2908 16.581 49.7694 15.3331 48.7054C14.0852 47.6413 13.4613 46.1605 13.4613 44.263C13.4613 43.4083 13.6269 42.5525 13.9581 41.6957C14.2893 40.8389 14.7797 40.0857 15.4293 39.4361L32.1986 22.686L40.8075 31.295C41.0895 31.5899 41.4378 31.8325 41.8524 32.0226C42.2669 32.2128 42.7348 32.3079 43.2562 32.3079C43.9699 32.3079 44.6002 32.059 45.1472 31.5611C45.6942 31.0632 45.9677 30.4147 45.9677 29.6156C45.9677 29.0942 45.8726 28.6263 45.6825 28.2117C45.4923 27.7972 45.2498 27.4489 44.955 27.1669L33.487 15.699C32.6622 14.8613 31.8043 14.247 30.9133 13.856C30.0222 13.465 29.0468 13.2695 27.987 13.2695C26.94 13.2695 25.9891 13.465 25.1344 13.856C24.2797 14.247 23.4336 14.8613 22.596 15.699L12.4485 25.8656C11.7348 26.5793 11.1579 27.4297 10.7177 28.4169C10.2775 29.404 10.0447 30.4233 10.019 31.4745C9.99338 32.2267 10.0575 32.95 10.2113 33.6445C10.3652 34.3389 10.6088 34.9917 10.9421 35.6028L8.41646 38.1285C7.85663 37.2353 7.41858 36.2064 7.1023 35.0419C6.78608 33.8773 6.6408 32.6882 6.66646 31.4745C6.69208 29.9617 6.99549 28.5119 7.57671 27.1252C8.15788 25.7384 8.98908 24.5045 10.0703 23.4233L20.1536 13.34C21.316 12.1903 22.5457 11.3356 23.8427 10.7758C25.1398 10.216 26.5425 9.93613 28.051 9.93613C29.5596 9.93613 30.9517 10.216 32.2274 10.7758C33.503 11.3356 34.7156 12.1903 35.8652 13.34L38.7691 16.2438L41.6729 13.34C42.8353 12.1903 44.0543 11.3356 45.3299 10.7758C46.6056 10.216 47.9977 9.93613 49.5062 9.93613C51.0148 9.93613 52.4176 10.216 53.7146 10.7758C55.0116 11.3356 56.2348 12.1903 57.3844 13.34L69.8011 25.7566C70.9507 26.9062 71.8374 28.1968 72.4614 29.6284C73.0853 31.06 73.3972 32.5302 73.3972 34.0387C73.3972 35.5472 73.0853 36.9393 72.4614 38.215C71.8374 39.4906 70.9507 40.7032 69.8011 41.8528L43.8139 67.8207C43.1216 68.513 42.3684 69.0173 41.5543 69.3335C40.7402 69.6498 39.8844 69.808 38.987 69.808Z" fill="white"/>
</g>
</g>
</svg>
