<svg width="80" height="80" viewBox="0 0 80 80" fill="none" xmlns="http://www.w3.org/2000/svg">
<g id="extension">
<mask id="mask0_39_1328" style="mask-type:alpha" maskUnits="userSpaceOnUse" x="0" y="0" width="80" height="80">
<rect id="Bounding box" width="80" height="80" fill="#D9D9D9"/>
</mask>
<g mask="url(#mask0_39_1328)">
<path id="extension_2" d="M29.8461 66.6666H16.6666C15.7499 66.6666 14.9652 66.3402 14.3124 65.6874C13.6596 65.0347 13.3333 64.2499 13.3333 63.3333V50.1538C15.2307 49.5982 16.8162 48.548 18.0897 47.0032C19.3632 45.4583 19.9999 43.6794 19.9999 41.6666C19.9999 39.6538 19.3632 37.8749 18.0897 36.33C16.8162 34.7852 15.2307 33.735 13.3333 33.1794V19.9999C13.3333 19.0833 13.6596 18.2986 14.3124 17.6458C14.9652 16.993 15.7499 16.6666 16.6666 16.6666H29.9999C30.5982 14.7606 31.6495 13.2371 33.1538 12.0961C34.658 10.955 36.3845 10.3845 38.3333 10.3845C40.282 10.3845 42.0085 10.955 43.5128 12.0961C45.017 13.2371 46.0683 14.7606 46.6666 16.6666H59.9999C60.9166 16.6666 61.7013 16.993 62.3541 17.6458C63.0069 18.2986 63.3333 19.0833 63.3333 19.9999V33.3333C65.2393 33.9316 66.7628 34.9828 67.9038 36.4871C69.0448 37.9914 69.6153 39.7179 69.6153 41.6666C69.6153 43.6153 69.0448 45.3418 67.9038 46.8461C66.7628 48.3504 65.2393 49.4017 63.3333 49.9999V63.3333C63.3333 64.2499 63.0069 65.0347 62.3541 65.6874C61.7013 66.3402 60.9166 66.6666 59.9999 66.6666H46.8204C46.2221 64.6581 45.1442 63.0448 43.5865 61.8269C42.0288 60.6089 40.2777 59.9999 38.3333 59.9999C36.3888 59.9999 34.6377 60.6089 33.08 61.8269C31.5223 63.0448 30.4444 64.6581 29.8461 66.6666ZM16.6666 63.3333H27.6602C28.6089 61.1196 30.0747 59.4551 32.0576 58.3397C34.0405 57.2243 36.1324 56.6666 38.3333 56.6666C40.5341 56.6666 42.626 57.2243 44.6089 58.3397C46.5918 59.4551 48.0576 61.1196 49.0063 63.3333H59.9999V47.0512H61.5384C63.1367 46.7948 64.3269 46.1367 65.1089 45.0769C65.891 44.017 66.282 42.8803 66.282 41.6666C66.282 40.4529 65.891 39.3162 65.1089 38.2564C64.3269 37.1965 63.1367 36.5384 61.5384 36.282H59.9999V19.9999H43.7178V18.4614C43.4614 16.8632 42.8033 15.673 41.7435 14.8909C40.6837 14.1089 39.5469 13.7179 38.3333 13.7179C37.1196 13.7179 35.9828 14.1089 34.923 14.8909C33.8632 15.673 33.2051 16.8632 32.9487 18.4614V19.9999H16.6666V30.923C18.7264 31.9059 20.3525 33.3717 21.5448 35.3204C22.7371 37.2692 23.3333 39.3912 23.3333 41.6867C23.3333 43.9425 22.7371 46.0448 21.5448 47.9935C20.3525 49.9422 18.7264 51.4145 16.6666 52.4102V63.3333Z" fill="white"/>
</g>
</g>
</svg>
