<svg width="80" height="80" viewBox="0 0 80 80" fill="none" xmlns="http://www.w3.org/2000/svg">
<g id="savings">
<mask id="mask0_39_1331" style="mask-type:alpha" maskUnits="userSpaceOnUse" x="0" y="0" width="80" height="80">
<rect id="Bounding box" width="80" height="80" fill="#D9D9D9"/>
</mask>
<g mask="url(#mask0_39_1331)">
<path id="savings_2" d="M53.3333 35.8974C54.0214 35.8974 54.6208 35.6421 55.1314 35.1314C55.6421 34.6208 55.8974 34.0214 55.8974 33.3333C55.8974 32.6453 55.6421 32.0459 55.1314 31.5352C54.6208 31.0246 54.0214 30.7693 53.3333 30.7693C52.6453 30.7693 52.0459 31.0246 51.5352 31.5352C51.0246 32.0459 50.7693 32.6453 50.7693 33.3333C50.7693 34.0214 51.0246 34.6208 51.5352 35.1314C52.0459 35.6421 52.6453 35.8974 53.3333 35.8974ZM26.6667 28.3333H43.3333V25H26.6667V28.3333ZM17.5 66.6667C15.8675 60.8462 14.2094 55.0716 12.5256 49.343C10.8419 43.6143 10 37.7222 10 31.6667C10 27.4957 11.4572 23.953 14.3717 21.0384C17.2863 18.1239 20.8291 16.6667 25 16.6667H43.3333C44.7735 14.7692 46.4754 13.1837 48.4391 11.9102C50.4027 10.6367 52.5897 10 55 10C55.4487 10 55.8387 10.1656 56.1699 10.4967C56.5011 10.828 56.6667 11.2179 56.6667 11.6667C56.6667 11.7863 56.6464 11.906 56.6057 12.0257C56.5652 12.1453 56.5321 12.2586 56.5064 12.3654C56.1133 13.3611 55.7981 14.3814 55.5609 15.4262C55.3238 16.4711 55.1069 17.5192 54.9102 18.5705L64.6731 28.3333H70V45.8141L61.2244 48.7052L55.8333 66.6667H43.3333V60H30V66.6667H17.5ZM20 63.3333H26.6667V56.6667H46.6667V63.3333H53.3333L58.5 46.1667L66.6667 43.4167V31.6667H63.3333L51.6667 20C51.6667 18.8889 51.7361 17.8194 51.875 16.7917C52.0139 15.7639 52.2649 14.7436 52.6282 13.7307C51.0171 14.1752 49.6218 14.9604 48.4423 16.0865C47.2628 17.2126 46.3098 18.5171 45.5833 20H25C21.7778 20 19.0278 21.1389 16.75 23.4167C14.4722 25.6944 13.3333 28.4444 13.3333 31.6667C13.3333 37.1111 14.0833 42.4306 15.5833 47.625C17.0833 52.8194 18.5556 58.0556 20 63.3333Z" fill="white"/>
</g>
</g>
</svg>
