<svg width="196" height="70" viewBox="0 0 196 70" fill="none" xmlns="http://www.w3.org/2000/svg">
<path d="M140.553 34.0759C140.553 34.5056 140.553 34.983 140.553 35.4127C140.553 35.7946 140.6 36.1288 140.409 36.5107C140.266 36.7972 140.457 37.1791 140.266 37.5133C140.075 37.8475 140.171 38.3249 140.075 38.7546C139.836 39.8049 139.502 40.8553 139.12 41.8578C138.738 42.9082 138.165 43.8153 137.593 44.7224C136.876 45.7727 136.113 46.823 135.158 47.6346C133.916 48.7327 132.484 49.5921 130.956 50.2127C130.002 50.5946 129.047 50.9288 127.996 51.0721C127.614 51.1198 127.185 51.1675 126.803 51.2153C126.373 51.3108 125.991 51.4063 125.514 51.4063C125.084 51.4063 124.654 51.3585 124.273 51.4063C123.7 51.454 123.127 51.263 122.554 51.2153C122.029 51.1675 121.503 50.9288 120.978 50.8811C119.928 50.7379 118.973 50.165 117.971 49.9263C117.445 49.4011 116.729 49.2101 116.109 48.7804C115.058 48.0166 114.008 47.2527 113.244 46.2024C112.242 44.9133 111.191 43.6243 110.714 41.9533C110.236 41.5237 110.236 40.903 110.045 40.3301C109.854 39.7572 109.807 39.1843 109.616 38.6114C109.329 37.8475 109.377 37.0836 109.234 36.3198C108.995 35.0785 109.043 33.8372 109.138 32.6436C109.234 31.1636 109.472 29.7314 109.902 28.2991C110.189 27.3442 110.571 26.4372 110.905 25.4823C111.191 24.7662 111.669 24.0978 112.051 23.4771C112.814 22.2359 113.865 21.2333 114.915 20.2784C115.679 19.5623 116.586 18.9894 117.493 18.512C118.257 18.13 119.069 17.7481 119.976 17.5571C120.453 17.4616 120.883 17.2707 121.36 17.1752C121.79 17.0797 122.267 17.1752 122.649 16.841C122.697 16.7932 122.84 16.841 122.936 16.841C124.177 16.841 125.418 16.7455 126.612 16.8887C127.996 17.032 129.381 17.2707 130.67 17.8436C131.434 18.1778 132.198 18.512 132.914 18.8939C133.63 19.2758 134.203 19.801 134.871 20.2784C135.158 20.5171 135.349 20.8036 135.635 21.0423C137.211 22.4268 138.261 24.241 139.12 26.1507C139.598 27.2488 139.932 28.3946 140.171 29.5881C140.314 30.3043 140.314 31.0204 140.648 31.6888C140.696 31.7843 140.648 31.9752 140.648 32.1185C140.553 32.8823 140.553 33.4552 140.553 34.0759ZM134.824 34.0281C134.728 33.3598 134.871 32.5959 134.68 31.832C134.537 31.1636 134.442 30.4952 134.298 29.8268C134.107 29.0152 133.869 28.2036 133.535 27.4875C133.105 26.5804 132.675 25.721 132.007 24.9571C131.529 24.432 131.052 23.9068 130.479 23.4294C129.811 22.952 129.142 22.5223 128.378 22.2358C127.567 21.9494 126.755 21.6629 125.848 21.6629C125.132 21.6629 124.416 21.6629 123.7 21.6629C122.983 21.6629 122.315 21.9017 121.647 22.1404C121.074 22.3313 120.549 22.6178 119.976 22.9042C118.496 23.7159 117.445 24.9094 116.634 26.3894C116.013 27.5352 115.583 28.7765 115.202 30.0178C114.915 31.0204 114.867 32.1185 114.82 33.1688C114.772 34.2669 114.629 35.3172 114.963 36.4152C115.058 36.7494 114.867 37.1791 115.106 37.5133C115.297 37.8475 115.058 38.2772 115.345 38.5636C115.631 39.9959 116.252 41.5237 117.016 42.6217C117.541 43.3856 118.83 44.7701 119.403 45.1998C120.978 46.2024 122.697 46.6798 124.559 46.823C125.562 46.9185 126.564 46.6798 127.519 46.4411C128.378 46.2501 129.285 45.9159 130.002 45.343C130.67 44.8179 131.338 44.2927 131.864 43.6243C132.389 43.0037 132.866 42.3353 133.2 41.5714C133.582 40.7598 133.916 39.9004 134.155 38.9933C134.298 38.3249 134.537 37.6565 134.633 36.9882C134.728 36.2243 134.919 35.5081 134.824 34.7443C134.776 34.5056 134.824 34.3146 134.824 34.0281Z" fill="#D13138"/>
<path d="M2.86453 39.7571C3.72388 39.7571 4.58324 39.7571 5.4426 39.7571C5.63357 39.7571 5.68131 39.8526 5.68131 39.9958C5.63357 40.7597 5.87228 41.5235 6.06324 42.2397C6.25421 42.9081 6.63615 43.5765 7.11357 44.1016C7.54325 44.579 8.06841 45.1042 8.64132 45.4384C9.30971 45.8203 10.0258 46.1068 10.7897 46.3455C11.2671 46.4887 11.7446 46.4887 12.222 46.5365C12.5562 46.5842 12.8904 46.6797 13.2246 46.7274C13.5588 46.7752 13.8929 46.7274 14.2271 46.7274C14.7046 46.7752 15.1342 46.5842 15.5639 46.5842C15.9936 46.5365 16.4233 46.4887 16.853 46.3932C17.2826 46.2977 17.7123 46.2023 18.142 46.0113C18.4762 45.8681 18.8104 45.6771 19.0491 45.4384C19.7652 44.77 20.5768 44.1016 20.8155 43.1468C20.9588 42.4784 21.3885 41.81 20.911 41.0939C20.8633 41.0461 20.911 40.9984 20.911 40.9029C21.0543 40.1868 20.6246 39.6139 20.2904 39.0887C19.9562 38.5635 19.4788 38.1816 18.8581 37.8951C18.333 37.6564 17.8555 37.4177 17.3304 37.3222C16.8052 37.2267 16.3278 36.9403 15.8026 36.8448C15.0865 36.7016 14.3704 36.4629 13.6065 36.2719C12.7471 36.0809 11.9355 35.7945 11.1239 35.6035C10.36 35.4603 9.59616 35.1738 8.83229 35.0306C8.06841 34.8397 7.30454 34.6009 6.54066 34.2667C5.77679 33.9325 5.01292 33.5506 4.34453 33.0732C3.53291 32.4048 2.7213 31.7364 2.19614 30.7816C1.90968 30.2087 1.67097 29.6358 1.43226 29.0629C1.24129 28.6809 1.38452 28.299 1.19355 27.9171C1.00258 27.4874 1.09807 26.9145 1.14581 26.3893C1.19355 25.9119 1.09807 25.4345 1.28903 24.9093C1.43226 24.4319 1.48 23.9545 1.67097 23.477C2.00517 22.6177 2.43485 21.9015 2.86453 21.2809C3.53291 20.2306 4.5355 19.6099 5.49034 18.8938C6.11099 18.4164 6.9226 18.1299 7.63873 17.8912C8.35487 17.6525 9.071 17.4615 9.78713 17.2228C9.88261 17.1751 9.93035 17.1751 10.0258 17.1751C10.6942 17.1273 11.3626 17.0319 12.031 16.9841C12.6994 16.9364 13.3678 16.9841 13.9884 16.9841C14.7046 16.9364 15.4207 17.0319 16.1368 17.1751C16.8052 17.3183 17.4259 17.4615 18.0943 17.6525C19.7175 18.1299 20.3859 18.4641 21.4362 19.1325C23.0594 20.2306 24.3962 21.6151 25.1123 23.477C25.3033 24.0022 25.4465 24.5751 25.5898 25.148C25.733 25.8164 25.6852 26.437 25.733 27.0577C25.733 27.2487 25.6852 27.3919 25.4465 27.3919C23.7278 27.3919 22.0091 27.3919 20.2426 27.3919C20.0517 27.3919 19.9562 27.3441 20.0039 27.1532C20.0517 26.7235 19.8607 26.3416 19.8607 25.9596C19.8607 25.5777 19.622 25.2912 19.4788 24.957C19.1446 24.1932 18.5239 23.3816 17.8555 22.9041C16.7575 22.188 16.7097 22.188 14.991 21.8061C14.8 21.7583 14.6091 21.6151 14.3704 21.6151C13.4155 21.6151 12.4607 21.5196 11.5058 21.6628C10.4555 21.8061 9.45293 22.1403 8.54583 22.7132C8.25938 22.9041 7.97293 23.0951 7.78196 23.4293C7.54325 23.7635 7.30454 24.1454 7.16131 24.5274C7.06583 24.8616 6.9226 25.1958 6.9226 25.6254C6.97034 26.1983 6.97035 26.7712 7.11357 27.3441C7.16131 27.5351 7.20906 27.7261 7.30454 27.8693C8.11616 28.8719 8.68906 29.3493 10.1213 29.9222C10.8852 30.2564 11.7446 30.2564 12.5084 30.5906C12.9858 30.7816 13.511 30.7816 13.9407 30.9725C14.5136 31.259 15.1342 31.3545 15.7071 31.45C16.471 31.5932 17.1394 31.8796 17.9033 32.0229C18.5717 32.1661 19.2401 32.3571 19.9084 32.548C20.4814 32.6913 21.0543 32.8345 21.5317 33.1209C22.1046 33.4551 22.773 33.6461 23.2504 34.1713C23.4414 34.3622 23.7278 34.5055 23.9188 34.6964C25.1123 35.7467 25.7807 37.179 26.3536 38.6113C26.4969 39.041 26.4969 39.5184 26.5446 39.948C26.5923 40.33 26.7833 40.6642 26.7356 41.0461C26.4969 42.1442 26.6401 43.29 26.2104 44.2926C25.733 45.3906 25.3033 46.441 24.4439 47.3481C23.6323 48.2074 22.773 48.9713 21.7704 49.4965C21.102 49.8307 20.4336 50.1649 19.7652 50.4513C19.2401 50.6423 18.6194 50.7378 18.0465 50.881C17.2826 51.072 16.5188 51.3584 15.7071 51.2629C15.182 51.5971 14.5613 51.4062 13.9884 51.4539C13.4155 51.5016 12.7949 51.5494 12.222 51.4539C11.3626 51.2629 10.5033 51.3107 9.69164 51.1197C8.02067 50.69 6.3497 50.2603 4.91744 49.21C4.63098 49.0191 4.24905 48.9236 4.01034 48.6371C3.72388 48.3507 3.53291 47.9687 3.10324 47.8732C3.00775 47.4913 2.62581 47.3958 2.48259 47.0616C2.29162 46.7274 2.00517 46.4887 1.8142 46.1545C1.14581 45.0087 0.525162 43.9107 0.334193 42.5261C0.286451 42.0965 0.286454 41.6668 0.143228 41.2371C1.45128e-06 40.8552 0 40.4255 0 40.0435C0 39.8048 0.0477414 39.7571 0.286452 39.7571C1.14581 39.7571 2.00517 39.7571 2.86453 39.7571Z" fill="#D13138"/>
<path d="M49.222 34.2669C49.222 29.1108 49.222 23.9546 49.222 18.7507C49.222 18.5598 49.222 18.3688 49.222 18.2256C49.222 17.8436 49.3652 17.7482 49.7471 17.7004C49.8426 17.7004 49.9858 17.7004 50.0813 17.7004C54.8555 17.7004 59.6297 17.6527 64.4039 17.7482C65.7885 17.7482 67.173 17.9869 68.5098 18.4165C70.3717 19.0372 71.9472 19.992 73.093 21.6153C73.5227 22.1882 73.9046 22.8088 74.0956 23.4295C74.2865 24.0024 74.5253 24.5753 74.6207 25.1959C74.7162 25.6733 74.6207 26.1985 74.764 26.6282C74.9072 27.1056 74.9549 27.5353 74.9072 28.0127C74.8117 29.3495 74.7162 30.734 74.1911 32.023C73.8569 32.8347 73.4749 33.5985 72.9498 34.2669C72.2814 35.174 71.422 35.8424 70.4672 36.4153C69.8465 36.7972 69.2259 37.0837 68.5098 37.3224C67.8414 37.5134 67.173 37.6566 66.4568 37.7998C64.8336 38.134 63.2104 37.9431 61.5872 37.9431C59.9639 37.9908 58.2929 37.9431 56.6697 37.9431C56.3355 37.9431 55.9536 37.9431 55.6194 37.9431C55.4284 37.9431 55.142 37.9431 55.0465 38.0385C54.9033 38.2772 54.7123 38.5637 54.8555 38.8502C55.0942 39.3753 54.9987 39.8527 54.9033 40.4256C54.8078 40.9508 54.6646 41.5715 55.0465 42.1444C55.0465 43.8153 55.0465 45.4863 55.0465 47.1573C54.6646 47.7302 54.951 48.3508 54.8555 48.9715C55.1897 49.2579 54.9987 49.6399 55.0465 49.9741C55.0942 50.356 54.9033 50.4992 54.5213 50.4992C52.8026 50.4992 51.1316 50.4992 49.4129 50.4992C49.1265 50.4992 49.1265 50.4037 49.1265 50.165C49.1265 49.4966 49.1265 48.7805 49.1265 48.1121C49.2219 43.5289 49.222 38.8979 49.222 34.2669ZM59.8684 33.3121C60.68 33.3121 61.5394 33.3598 62.351 33.3121C63.2104 33.2643 64.022 33.3121 64.8814 33.1689C66.3614 32.9301 67.4594 32.1185 68.3665 31.0205C68.5575 30.7817 68.7962 30.4953 68.8917 30.1611C69.0827 29.3972 69.2259 28.6811 69.2736 27.9172C69.3214 27.2011 69.0827 26.4372 68.9394 25.7211C68.653 24.5275 68.0323 23.6204 66.9343 23.0953C66.1226 22.7133 65.2155 22.3791 64.3084 22.3791C61.4917 22.3791 58.7226 22.3791 55.9058 22.3791C55.7149 22.3791 55.5239 22.3314 55.3807 22.3791C55.2375 22.4269 55.0465 22.5701 55.0465 22.7133C54.9987 23.334 54.9033 24.0024 55.0465 24.5753C55.142 25.005 55.0942 25.3869 55.0465 25.7688C54.951 26.7714 54.9987 27.774 54.9987 28.8243C54.9987 28.8721 55.0465 28.9198 55.0465 28.9675C55.2852 29.2062 55.2375 29.5882 55.142 29.8269C54.8555 30.543 55.0465 31.2592 54.9987 31.9753C54.9987 32.3095 54.9987 32.6437 55.142 32.9779C55.2375 33.2166 55.2852 33.3121 55.5239 33.3121C56.9562 33.3121 58.3884 33.3121 59.8684 33.3121Z" fill="#D13138"/>
<path d="M80.0159 34.1237C80.0159 28.9676 80.0159 23.8114 80.0159 18.6075C80.0159 18.3688 80.0159 18.1301 80.0159 17.8914C80.0159 17.7959 80.1591 17.7004 80.2068 17.7004C80.3978 17.6527 80.541 17.7004 80.732 17.7004C85.554 17.7004 90.3282 17.7004 95.1501 17.7004C95.5798 17.7004 96.0095 17.7959 96.4391 17.8914C96.8688 17.9391 97.2985 17.7482 97.7282 18.0824C98.7785 17.9391 99.6856 18.4643 100.545 18.8462C101.929 19.5146 103.219 20.4217 104.03 21.8062C104.46 22.5701 104.937 23.334 105.176 24.1933C105.271 24.5753 105.367 24.9572 105.462 25.3392C105.797 26.6282 105.653 27.9172 105.606 29.2063C105.558 30.925 105.08 32.5005 104.078 33.9327C103.553 34.6966 102.932 35.4127 102.216 35.8901C101.404 36.4631 100.497 36.9882 99.4946 37.2747C98.6353 37.5134 97.8237 37.7044 96.9643 37.8476C96.2959 37.9908 95.6275 37.9908 94.9591 37.9908C92.1901 37.9908 89.4211 37.9908 86.652 37.9908C86.3656 37.9908 85.9836 37.8953 85.8881 38.0385C85.7449 38.2295 85.7927 38.6115 85.7927 38.8979C85.7927 42.4786 85.7927 46.0592 85.7927 49.6399C85.7927 49.8308 85.7927 50.0695 85.7927 50.2605C85.7927 50.4515 85.7927 50.547 85.5539 50.547C83.7875 50.547 82.021 50.547 80.2546 50.547C80.0636 50.547 80.0159 50.4515 80.0159 50.2605C80.0159 50.0695 80.0159 49.8308 80.0159 49.6399C80.0159 44.436 80.0159 39.2798 80.0159 34.1237ZM85.7449 27.8695C85.7449 29.5405 85.7449 31.2114 85.7449 32.8824C85.7449 33.3121 85.7449 33.3121 86.1746 33.3121C88.8482 33.3121 91.474 33.3121 94.1475 33.3121C94.6727 33.3121 95.1501 33.3121 95.6753 33.1689C96.3914 32.9301 97.1553 32.7392 97.8237 32.3095C98.9217 31.5934 99.6856 30.3521 99.8766 29.2063C100.02 28.3469 99.8766 27.4875 99.9243 26.6282C99.9243 26.3895 99.7811 26.1985 99.7333 26.0075C99.6379 24.814 98.874 23.9546 97.9669 23.3817C97.0598 22.8088 96.0095 22.4269 94.8637 22.4269C93.9566 22.4269 93.0972 22.4269 92.1901 22.4269C90.1849 22.4269 88.1798 22.4269 86.2223 22.4269C85.7927 22.4269 85.7449 22.4269 85.7449 22.9043C85.7449 24.5275 85.7449 26.1985 85.7449 27.8695Z" fill="#D13138"/>
<path d="M34.1832 34.1237C34.1832 28.9676 34.1832 23.8114 34.1832 18.6075C34.1832 18.4166 34.1832 18.1779 34.1832 17.9869C34.1355 17.7004 34.2787 17.7004 34.5174 17.7004C35.7587 17.7004 36.9523 17.7004 38.1936 17.7004C38.7665 17.7004 39.3394 17.7004 39.8645 17.7482C39.8645 18.3211 39.9123 18.9417 39.9123 19.5146C39.9123 29.5882 39.9123 39.6618 39.9123 49.7354C39.9123 50.547 39.9123 50.547 39.0529 50.547C37.6684 50.547 36.2361 50.547 34.8516 50.547C34.1832 50.547 34.1832 50.547 34.1832 49.8309C34.1832 44.9134 34.1832 39.996 34.1832 35.0308C34.1832 34.6966 34.1832 34.4102 34.1832 34.1237Z" fill="#D13138"/>
<path d="M194.406 33.2643C194.406 32.7869 194.406 32.3094 194.406 31.832C194.358 31.0204 194.358 30.2088 194.215 29.3972C194.167 29.0153 194.167 28.6333 194.024 28.2991C193.881 27.9172 193.976 27.5353 193.833 27.2011C193.499 26.4372 193.451 25.5778 193.212 24.7662C192.974 23.9069 192.687 23.0952 192.401 22.2359C192.21 21.6152 191.923 21.0423 191.684 20.4694C191.255 19.5623 190.825 18.6552 190.3 17.7959C189.775 16.7933 189.154 15.8862 188.486 14.9791C188.008 14.2629 187.435 13.6423 186.91 13.0217C185.955 11.8758 184.857 10.8733 183.855 9.82293C183.091 9.05906 182.232 8.48616 181.42 7.81777C180.561 7.14938 179.653 6.57647 178.746 6.00357C177.935 5.4784 176.98 5.04873 176.121 4.61905C175.07 4.09389 173.972 3.71195 172.874 3.33001C172.301 3.13905 171.728 3.04356 171.203 2.80485C170.678 2.56614 170.01 2.66162 169.532 2.27968C168.673 2.37517 167.909 1.94549 167.097 1.89775C166.429 1.85001 165.761 1.89775 165.092 1.75452C163.612 1.42033 162.084 1.70678 160.604 1.6113C160.127 1.56355 159.745 1.85 159.268 1.80226C158.838 1.75452 158.408 1.65904 157.979 1.94549C157.119 1.85001 156.355 2.23194 155.544 2.32743C154.828 2.42291 154.159 2.66163 153.443 2.85259C153.252 3.23453 152.87 2.90033 152.584 3.13904C152.345 3.33001 152.011 3.37776 151.724 3.4255C151.295 3.52098 150.913 3.95066 150.435 3.95066C149.862 4.47582 149.003 4.47582 148.43 5.00099C148.144 5.28744 147.619 5.38292 147.237 5.57389C146.664 5.86034 146.091 6.14679 145.613 6.62422C145.47 6.7197 145.327 6.67196 145.327 6.48099C145.327 6.05131 145.327 5.57389 145.327 5.14421C145.327 4.81001 145.613 4.66679 145.852 4.52357C146.568 4.09389 147.284 3.66421 148.048 3.33001C149.146 2.85259 150.244 2.37517 151.342 1.99323C152.106 1.70678 152.918 1.46807 153.73 1.22936C154.398 1.03839 155.019 0.895164 155.687 0.751938C155.973 0.704196 156.212 0.608715 156.499 0.560972C156.785 0.51323 157.071 0.60871 157.31 0.37C157.979 0.513226 158.551 0.179034 159.22 0.179034C159.936 0.179034 160.652 0.0358066 161.368 0.0358066C162.132 -0.0119355 162.848 -0.0119355 163.612 0.0358066C164.567 0.0835487 165.474 0.131291 166.381 0.274517C167.241 0.370001 168.148 0.370001 168.959 0.751938C169.675 0.656454 170.344 0.99065 171.06 1.13388C171.824 1.2771 172.588 1.56355 173.352 1.85001C174.068 2.08872 174.784 2.32743 175.452 2.66162C176.312 3.0913 177.219 3.4255 178.078 3.90292C179.653 4.81002 181.181 5.66938 182.613 6.76744C183.33 7.34035 183.998 7.91325 184.666 8.48615C185.478 9.1068 186.194 9.87068 186.91 10.5868C187.77 11.4939 188.533 12.4488 189.297 13.4513C190.204 14.5971 190.825 15.8862 191.732 17.032C192.162 18.2733 192.926 19.4191 193.403 20.6126C193.881 21.7585 194.31 22.952 194.644 24.0978C194.883 24.9572 195.17 25.8165 195.313 26.7236C195.456 27.5353 195.552 28.3469 195.695 29.1585C195.79 29.7791 195.695 30.4475 195.838 31.0682C196.124 32.2617 195.934 33.4075 195.981 34.6011C196.029 35.5082 195.647 36.3675 195.79 37.3224C195.504 37.7998 195.695 38.3727 195.599 38.8501C195.504 39.4708 195.361 40.1392 195.217 40.7598C195.122 41.1895 194.979 41.6192 194.883 42.0488C194.835 42.4308 194.644 42.8127 194.501 43.2424C194.358 43.7198 194.167 44.1972 194.024 44.6269C193.69 45.5818 193.212 46.4411 192.926 47.396C192.783 47.8734 192.496 48.3985 192.162 48.7805C191.828 49.2101 191.637 49.6876 191.398 50.165C191.207 50.4992 191.064 50.6902 190.682 50.6424C190.252 50.5947 189.823 50.5947 189.393 50.5469C189.393 50.0695 189.775 49.8308 189.966 49.4489C190.204 48.9237 190.682 48.494 190.873 47.9211C191.064 47.396 191.589 47.014 191.541 46.3934C192.257 45.4385 192.448 44.245 192.878 43.1947C193.164 42.4785 193.355 41.6669 193.546 40.8553C193.69 40.1392 193.785 39.3753 194.024 38.6592C194.215 38.0863 194.167 37.4656 194.215 36.8449C194.263 36.272 194.358 35.6992 194.406 35.1262C194.454 34.4579 194.406 33.8372 194.406 33.2643Z" fill="#D13138"/>
<path d="M167.193 31.6889C167.193 30.7818 167.193 29.8747 167.193 29.0153C167.193 28.8721 167.193 28.8244 167.002 28.9198C166.811 29.0153 166.62 29.0153 166.429 29.0153C165.044 29.0153 163.612 29.0153 162.228 29.0153C162.037 29.0153 161.846 28.9676 161.655 28.9198C161.321 28.7766 161.321 28.7766 161.321 28.4424C161.321 26.7715 161.321 25.1005 161.321 23.4295C161.321 23.143 161.416 23.0953 161.655 23.0953C163.373 23.0953 165.092 23.0953 166.859 23.0953C167.193 23.0953 167.241 22.9998 167.241 22.7134C167.241 20.9947 167.241 19.3237 167.241 17.605C167.241 17.1753 167.241 17.1753 167.67 17.1753C169.341 17.1753 171.012 17.1753 172.683 17.1753C173.113 17.1753 173.161 17.1753 173.161 17.6527C173.161 19.2759 173.161 20.9469 173.161 22.5701C173.161 23.0476 173.161 23.0476 173.686 23.0476C175.357 23.0476 177.028 23.0476 178.699 23.0476C178.937 23.0476 179.081 23.0476 179.081 23.3818C179.081 25.0527 179.081 26.7237 179.081 28.3947C179.081 28.8721 178.985 28.9676 178.412 28.9676C176.789 28.9676 175.118 28.9676 173.495 28.9676C173.208 28.9676 173.161 29.0631 173.161 29.3018C173.161 30.9728 173.161 32.6437 173.161 34.3147C173.161 34.6489 173.065 34.6966 172.779 34.6966C171.06 34.6966 169.341 34.6966 167.575 34.6966C167.288 34.6966 167.241 34.6012 167.241 34.3624C167.193 33.5031 167.193 32.596 167.193 31.6889ZM172.206 20.9947C172.206 20.0876 172.206 19.1805 172.206 18.3211C172.206 18.1301 172.158 18.0824 171.967 18.0824C170.869 18.0824 169.771 18.0824 168.673 18.0824C168.339 18.0824 168.291 18.1779 168.291 18.4643C168.291 20.0398 168.291 21.6153 168.291 23.1908C168.291 23.9547 168.291 23.9547 167.479 23.9547C165.904 23.9547 164.328 23.9547 162.753 23.9547C162.514 23.9547 162.371 24.0024 162.371 24.2889C162.371 25.3869 162.371 26.4372 162.371 27.5353C162.371 27.8218 162.419 27.965 162.753 27.9173C164.376 27.9173 165.952 27.9173 167.575 27.9173C168.195 27.9173 168.291 28.0127 168.291 28.6334C168.291 30.2566 168.291 31.8799 168.291 33.4553C168.291 33.6941 168.291 33.8373 168.625 33.8373C169.723 33.8373 170.821 33.8373 171.919 33.8373C172.206 33.8373 172.253 33.6941 172.253 33.4553C172.253 31.7366 172.253 30.0657 172.253 28.3469C172.253 27.9173 172.254 27.9173 172.683 27.9173C174.402 27.9173 176.073 27.9173 177.792 27.9173C178.078 27.9173 178.221 27.9173 178.221 27.5353C178.174 26.485 178.221 25.4347 178.221 24.3843C178.221 23.9547 178.221 23.9547 177.792 23.9547C176.073 23.9547 174.354 23.9547 172.588 23.9547C172.349 23.9547 172.301 23.9069 172.301 23.6682C172.206 22.8089 172.206 21.9018 172.206 20.9947Z" fill="#D13138"/>
<path d="M101.882 64.3445C101.882 63.5806 101.882 62.8645 101.882 62.1006C101.882 61.9574 101.929 61.7186 101.929 61.7186C102.168 61.6709 102.455 61.7186 102.693 61.7186C102.693 61.7186 102.741 61.8141 102.741 61.8619C102.884 62.2438 102.884 62.2916 103.171 62.0528C103.744 61.5754 104.46 61.4322 105.176 61.5277C105.415 61.5754 105.701 61.7664 105.892 61.9096C106.274 62.1961 106.274 62.1961 106.656 61.9574C107.42 61.4322 107.993 61.4322 108.9 61.6709C109.234 61.7664 109.52 61.8141 109.616 62.1006C109.759 62.4348 110.093 62.7212 110.045 63.1509C110.045 64.3922 110.045 65.6812 110.045 66.9225C110.045 67.3045 109.902 67.4477 109.52 67.4477C109.138 67.4477 108.995 67.3045 108.995 66.9225C108.995 65.729 108.995 64.5354 108.995 63.3419C108.995 62.6257 108.756 62.4348 108.04 62.4348C107.611 62.4348 107.181 62.387 106.799 62.7212C106.56 62.9599 106.465 63.1509 106.465 63.4851C106.465 64.4877 106.465 65.4425 106.465 66.4451C106.465 66.5883 106.465 66.7316 106.465 66.8748C106.465 67.3045 106.322 67.4477 105.892 67.4477C105.558 67.4477 105.415 67.2567 105.415 66.8748C105.415 65.729 105.415 64.5354 105.415 63.3896C105.415 62.8167 105.176 62.4825 104.651 62.2916C104.603 62.2438 103.648 62.5303 103.553 62.578C102.932 62.9122 102.741 63.5329 102.741 64.2012C102.693 65.1561 102.741 66.1109 102.741 67.0658C102.741 67.209 102.836 67.4477 102.55 67.4477C102.168 67.4954 101.882 67.3522 101.882 67.0658C101.882 66.9225 101.882 66.7793 101.882 66.6361C101.882 65.8245 101.882 65.0606 101.882 64.3445Z" fill="#D13138"/>
<path d="M20.4812 67.6387C19.8606 67.4955 19.1445 67.4477 18.6193 67.1613C18.0464 66.8748 17.569 66.3974 17.378 65.6813C17.378 65.5858 17.3303 65.4903 17.3303 65.4426C17.0916 64.7264 17.0916 64.6787 17.8077 64.6787C17.8554 64.6787 17.9509 64.6787 17.9987 64.6787C18.1896 64.6787 18.3329 64.7264 18.3329 64.9651C18.2374 65.92 18.9535 66.3974 20.0038 66.6361C20.529 66.7316 21.1019 66.7316 21.6271 66.4929C22.3909 66.2064 22.8206 65.6335 22.6296 64.9174C22.5342 64.5355 22.2 64.3445 21.8658 64.1535C21.3406 63.8193 20.7677 63.7716 20.1948 63.6761C19.4787 63.4851 18.7625 63.2942 18.1896 62.96C17.7122 62.6258 17.4735 62.1484 17.4735 61.6232C17.569 60.3342 18.3328 59.4748 19.6696 59.3793C19.9083 59.3793 20.1948 59.4748 20.3858 59.2361C20.3858 59.2361 20.4335 59.2361 20.4812 59.2361C21.1974 59.4271 22.009 59.427 22.5819 59.9999C22.9161 60.2864 23.1548 60.6206 23.2025 61.098C23.2025 61.3367 23.5367 61.5754 23.2503 61.7664C22.9161 61.9574 22.4864 61.7664 22.2954 61.4322C21.7225 60.4296 20.9587 60 19.8606 60.1909C19.4787 60.2864 19.049 60.4774 18.7625 60.7638C18.2851 61.289 18.4761 62.0529 19.1445 62.4348C19.4787 62.6258 19.8606 62.769 20.2425 62.8167C21.0064 62.8645 21.7225 63.1509 22.4387 63.3896C23.4413 63.7238 24.0142 65.1084 23.5845 66.1109C23.2025 66.9226 22.5819 67.3522 21.7225 67.5432C21.2451 67.4477 20.8632 67.5909 20.4812 67.6387Z" fill="#D13138"/>
<path d="M161.13 64.6785C161.13 65.4424 161.082 66.254 161.13 67.0179C161.177 67.734 160.843 68.3069 160.557 68.9276C160.461 69.1663 160.127 69.3573 159.888 69.4528C159.315 69.6437 158.743 69.7869 158.122 69.7392C157.645 69.6915 157.215 69.405 156.737 69.3573C156.499 69.3095 156.308 68.9753 156.212 68.6889C156.021 68.2115 156.021 68.116 156.499 68.116C156.785 68.116 156.976 68.116 157.072 68.4502C157.215 68.8798 157.692 68.8798 157.979 68.9753C158.265 69.0708 158.647 68.9753 158.981 68.8798C159.745 68.6889 159.936 68.0682 160.127 67.4953C160.223 67.2566 160.127 66.9702 160.127 66.7314C159.936 66.8269 159.697 66.9224 159.506 67.0656C158.647 67.734 156.785 67.3998 156.212 66.3018C155.878 65.6334 155.592 64.965 155.687 64.2011C155.783 63.5805 155.926 63.0076 156.26 62.4824C156.642 61.8618 157.31 61.623 157.979 61.5276C158.743 61.4321 159.411 61.623 159.936 62.1482C160.079 62.2437 160.127 62.2437 160.127 62.1005C160.127 61.9572 160.032 61.7663 160.27 61.7663C160.509 61.7663 160.748 61.7663 160.986 61.814C161.034 61.814 161.034 61.9572 161.034 62.0527C161.13 62.8166 161.13 63.7714 161.13 64.6785ZM156.833 64.5831C156.833 64.9172 156.928 65.3469 157.119 65.8243C157.358 66.3973 157.883 66.4927 158.313 66.636C158.743 66.7315 159.172 66.5405 159.554 66.2063C160.079 65.7766 160.079 65.1082 160.223 64.5353C160.366 63.9624 160.079 63.4372 159.793 62.9598C159.65 62.7211 159.411 62.4824 159.124 62.4347C158.743 62.3392 158.265 62.3392 157.883 62.4347C157.597 62.4824 157.167 62.5779 157.167 63.0553C156.737 63.3895 156.833 63.9147 156.833 64.5831Z" fill="#D13138"/>
<path d="M172.062 64.4876C172.062 63.6283 172.062 62.8167 172.062 61.9573C172.062 61.6709 172.11 61.5754 172.397 61.6231C172.492 61.6231 172.588 61.6231 172.683 61.6231C172.922 61.5754 173.017 61.6709 172.97 61.9096C172.97 62.0528 172.922 62.2438 173.161 62.0528L173.208 62.0051C173.924 61.4799 174.688 61.2889 175.595 61.6231C175.834 61.7186 176.073 61.7186 176.121 61.9573C176.216 62.3392 176.455 62.196 176.646 62.1005C176.884 61.9573 177.123 61.7663 177.362 61.6231C178.03 61.2412 178.794 61.3844 179.415 61.6709C179.797 61.8141 180.035 62.2438 180.035 62.7212C180.035 64.2012 180.035 65.6335 180.035 67.1135C180.035 67.3044 179.988 67.3999 179.797 67.3999C179.701 67.3999 179.606 67.3999 179.51 67.3999C179.224 67.4476 179.081 67.3522 179.081 67.018C179.128 66.0631 179.081 65.1083 179.081 64.1534C179.081 63.867 179.081 63.5328 179.081 63.2463C179.033 62.6257 178.794 62.387 178.173 62.387C178.078 62.387 177.935 62.387 177.839 62.387C177.505 62.387 177.219 62.3392 176.932 62.6257C176.598 63.0076 176.359 63.3418 176.407 63.8192C176.407 64.9173 176.407 65.9676 176.407 67.0657C176.407 67.3522 176.311 67.4476 176.073 67.3999C175.977 67.3999 175.882 67.3999 175.786 67.3999C175.5 67.4476 175.5 67.3044 175.5 67.0657C175.5 65.8722 175.5 64.6786 175.5 63.4851C175.5 63.2463 175.5 63.0076 175.357 62.7212C175.118 62.387 174.831 62.2438 174.354 62.3393C174.163 62.387 173.924 62.3392 173.733 62.4347C173.304 62.578 172.779 63.3418 172.779 63.9147C172.779 64.9651 172.779 66.0154 172.779 67.0657C172.779 67.3044 172.731 67.4954 172.444 67.4476C172.397 67.4476 172.301 67.4476 172.253 67.4476C171.967 67.4954 171.824 67.4477 171.824 67.0657C172.062 66.1586 172.062 65.347 172.062 64.4876Z" fill="#D13138"/>
<path d="M52.4685 64.4878C52.4685 63.6284 52.4685 62.769 52.4685 61.9097C52.4685 61.7187 52.5162 61.6232 52.7072 61.671C52.8504 61.671 52.9937 61.671 53.1369 61.671C53.1846 61.671 53.3279 61.7665 53.3279 61.7665C53.3279 62.5303 53.5666 61.9574 53.7575 61.8619C54.3305 61.48 54.9988 61.3845 55.6672 61.48C56.1447 61.5277 56.3834 61.9097 56.7176 62.1961C56.8608 62.3394 56.9563 62.3871 57.0517 62.1961C57.3382 61.5755 57.9588 61.6232 58.4363 61.48C58.484 61.48 58.484 61.48 58.5318 61.48C59.7731 61.3368 60.6801 62.0529 60.5847 63.4852C60.5369 64.6787 60.5369 65.8723 60.5847 67.0658C60.5847 67.3523 60.4892 67.4478 60.2027 67.4C60.155 67.4 60.155 67.4 60.1072 67.4C59.6776 67.4 59.6776 67.4 59.6776 66.9703C59.6776 65.9678 59.6776 64.9174 59.6776 63.9148C59.6776 63.7239 59.6776 63.5329 59.6776 63.3897C59.6298 62.8168 59.3434 62.3394 58.7705 62.2916C58.3408 62.2916 57.7679 62.1484 57.4814 62.5303C57.2905 62.8168 56.9563 63.0555 56.9563 63.5806C57.0518 64.7265 56.9563 65.8723 57.004 66.9703C57.004 67.3045 56.9085 67.4 56.5743 67.3523C56.4788 67.3523 56.3834 67.3523 56.2879 67.3523C56.0969 67.3523 56.0492 67.2568 56.0492 67.0658C56.0492 66.6361 56.0492 66.1587 56.0492 65.729C56.0492 65.0129 56.0492 64.2968 56.0492 63.5806C56.0492 63.3897 56.0492 63.1987 56.0014 63.1032C55.7627 62.8645 55.9059 62.3871 55.4763 62.3394C54.7601 62.2916 53.9963 62.2439 53.5666 63.0555C53.4233 63.2942 53.3756 63.5329 53.3756 63.7716C53.3756 64.8697 53.3756 65.92 53.3756 67.0181C53.3756 67.2568 53.3279 67.4 53.0414 67.3523C52.9459 67.3523 52.8504 67.3523 52.755 67.3523C52.5163 67.4 52.4685 67.3045 52.4685 67.0658C52.4685 66.2065 52.4685 65.3471 52.4685 64.4878Z" fill="#D13138"/>
<path d="M181.515 64.5354C181.515 63.676 181.515 62.8166 181.515 61.9573C181.515 61.7186 181.611 61.6708 181.802 61.6708C181.945 61.6708 182.088 61.6708 182.232 61.6708C182.279 61.6708 182.327 61.7663 182.375 61.8618C182.566 62.2915 182.566 62.2915 182.852 62.005C183.568 61.3366 184.905 61.3366 185.573 61.9573C185.669 62.4824 185.955 62.2437 186.146 62.1005C186.719 61.6231 187.388 61.3844 188.152 61.5276C188.677 61.6231 189.297 61.7663 189.441 62.4347C189.488 62.5779 189.536 62.7689 189.536 62.9599C189.536 64.3444 189.536 65.7289 189.536 67.0657C189.536 67.2089 189.632 67.4476 189.345 67.4476C188.963 67.4476 188.677 67.3521 188.677 67.0657C188.677 66.8747 188.677 66.6838 188.677 66.5405C188.677 65.4425 188.677 64.3444 188.677 63.2463C188.677 62.7212 188.39 62.4347 187.865 62.4347C187.722 62.4347 187.579 62.4347 187.435 62.4347C187.101 62.4347 186.815 62.387 186.528 62.6734C186.242 63.0554 185.955 63.3895 185.955 63.867C186.003 64.965 185.955 66.0154 185.955 67.1134C185.955 67.3999 185.86 67.4954 185.621 67.4476C185.526 67.4476 185.43 67.4476 185.335 67.4476C185.096 67.4954 185.048 67.3521 185.048 67.1134C185.048 66.0154 185.048 64.9173 185.048 63.8192C185.048 63.6283 185.048 63.4373 185.048 63.2941C185.001 62.6734 184.762 62.4347 184.141 62.4347C183.759 62.4347 183.425 62.387 183.091 62.6734C182.661 63.0554 182.422 63.4373 182.422 64.0102C182.422 65.0128 182.422 65.9676 182.422 66.9702C182.422 67.1134 182.375 67.3999 182.327 67.4476C182.088 67.4954 181.85 67.4476 181.611 67.4476C181.563 67.4476 181.515 67.3044 181.515 67.2089C181.515 66.2541 181.515 65.3947 181.515 64.5354Z" fill="#D13138"/>
<path d="M85.0288 63.4373C85.0288 62.2438 85.0288 61.0502 85.0288 59.8567C85.0288 59.4748 85.172 59.3315 85.554 59.3315C86.5566 59.3315 87.5591 59.2838 88.6095 59.3315C89.2301 59.3315 89.803 59.5702 90.3282 59.9044C90.7579 60.1431 90.8533 60.6683 90.9488 61.1457C90.9966 61.4799 90.9488 61.8141 90.9488 62.1483C90.9966 63.1031 90.1372 64.1057 89.0391 64.0103C88.2753 63.9625 87.5591 64.0103 86.7953 64.0103C86.1746 64.0103 86.1269 64.058 86.1269 64.7264C86.1269 65.538 86.1269 66.3496 86.1269 67.1612C86.1269 67.3522 86.0791 67.4477 85.8882 67.4477C85.7449 67.4477 85.6017 67.4477 85.4585 67.4477C85.172 67.4954 85.0288 67.3999 85.0288 67.0657C85.0288 65.8245 85.0288 64.6309 85.0288 63.4373ZM86.1269 61.9096C86.1269 62.2438 86.1269 62.578 86.1269 62.9122C86.1269 63.1509 86.1269 63.2941 86.4611 63.2941C87.0817 63.2464 87.7024 63.2941 88.323 63.2941C88.7527 63.2941 89.1824 63.1509 89.4688 62.8644C89.8508 62.5302 89.8508 62.4825 89.9462 61.6709C89.994 61.1457 89.6598 60.5251 89.2301 60.3819C88.323 60.0954 87.3682 60.1909 86.4611 60.1909C86.2701 60.1909 86.1269 60.3819 86.1269 60.6206C86.1269 61.0502 86.1269 61.4799 86.1269 61.9096Z" fill="#D13138"/>
<path d="M139.264 63.4373C139.264 62.2915 139.264 61.098 139.264 59.9522C139.264 59.427 139.359 59.3315 139.884 59.3315C140.791 59.3315 141.651 59.2838 142.558 59.3315C142.988 59.3315 143.465 59.427 143.895 59.5702C144.659 59.8089 145.184 60.5728 145.184 61.3844C145.184 61.5754 145.184 61.8141 145.184 62.0051C145.231 62.8644 144.706 63.3419 144.086 63.7715C143.847 63.9148 143.656 63.9625 143.417 63.9625C142.51 63.9625 141.555 63.9625 140.648 63.9625C140.409 63.9625 140.314 64.0103 140.362 64.249C140.362 65.1561 140.362 66.1109 140.362 67.018C140.362 67.2567 140.314 67.3522 140.028 67.3522C139.264 67.3522 139.264 67.3522 139.264 66.5883C139.264 65.538 139.264 64.4877 139.264 63.4373ZM140.362 61.8141C140.362 62.2438 140.362 62.7212 140.362 63.1509C140.839 63.1986 141.317 63.1986 141.746 63.2464C141.985 63.2464 142.224 63.2941 142.462 63.2464C143.56 63.1032 143.99 62.9122 144.181 61.7664C144.229 61.4799 144.133 61.1457 143.99 60.907C143.704 60.4773 143.226 60.1909 142.701 60.1909C142.08 60.1431 141.46 60.1909 140.839 60.1909C140.505 60.1909 140.362 60.3341 140.362 60.6683C140.362 61.0502 140.362 61.4322 140.362 61.8141Z" fill="#D13138"/>
<path d="M29.791 67.3522C29.3613 67.5432 29.4091 67.1135 29.3136 66.8271C28.9794 65.8722 28.8839 64.8219 28.502 63.8671C28.4065 63.6761 28.4065 63.4374 28.3587 63.1987C28.3587 63.1509 28.2633 63.1032 28.2155 63.0554C28.1678 63.1032 28.12 63.1509 28.0723 63.1987C27.9291 63.5806 27.8336 63.9148 27.7381 64.2967C27.5949 64.7742 27.4994 65.2516 27.3562 65.7767C27.2607 66.0632 27.1652 66.3496 27.1652 66.6838C27.1652 67.1135 26.9265 67.3045 26.4968 67.3045C26.4013 67.3045 26.2581 67.3522 26.1626 67.3045C26.0671 67.2567 25.9716 67.209 25.9716 67.1135C25.4942 65.729 25.0645 64.3922 24.6349 63.0077C24.4916 62.578 24.3962 62.1483 24.2529 61.7187C24.2529 61.6709 24.3007 61.5754 24.3007 61.5754C24.5394 61.5754 24.7781 61.5754 25.0168 61.5754C25.2555 61.5754 25.2078 61.7187 25.2555 61.8619C25.4942 62.6735 25.7329 63.5329 25.9716 64.3445C26.1149 64.8696 26.2581 65.3471 26.4013 65.8722C26.4013 65.9677 26.5445 66.0155 26.5923 66.0632C26.64 66.0155 26.6878 65.92 26.6878 65.8722C26.6878 65.6335 26.7833 65.4426 26.8787 65.2038C27.0697 64.6787 27.1175 64.1058 27.2607 63.5806C27.3084 63.3419 27.4039 63.1032 27.4039 62.8645C27.4039 62.578 27.4994 62.387 27.5949 62.1483C27.7858 61.6709 27.7381 61.6709 28.2155 61.6232C28.3588 61.6232 28.502 61.6232 28.6452 61.6232C28.6929 61.6232 28.7884 61.7187 28.8362 61.7664C28.9794 62.8645 29.5046 63.8671 29.5523 64.9651C29.6 65.2993 29.791 65.6335 29.8865 65.9677C29.8865 66.0154 29.9342 66.0155 29.982 66.0632C30.0297 66.0155 30.0297 65.9677 30.0775 65.92C30.4117 64.5355 30.9368 63.1987 31.1755 61.8141C31.1755 61.7187 31.3188 61.6232 31.3665 61.6232C31.6052 61.5754 31.8439 61.5754 32.0826 61.6232C32.3213 61.6709 32.1304 61.7664 32.0826 61.8141C31.8917 62.96 31.3665 64.0103 31.08 65.1561C31.0323 65.4425 30.8891 65.6813 30.8413 65.9677C30.7459 66.2542 30.6026 66.4451 30.6026 66.7793C30.5549 67.3045 30.4117 67.3522 29.791 67.3522Z" fill="#D13138"/>
<path d="M61.9214 65.538C61.9214 64.3444 61.9214 63.1509 61.9214 61.9573C61.9214 61.6709 61.9691 61.5754 62.2556 61.6231C62.3511 61.6231 62.4466 61.6231 62.542 61.6231C62.7807 61.5754 62.8762 61.6709 62.8285 61.9096C62.8285 62.0528 62.7807 62.2438 63.0195 62.0528C63.6401 61.4322 64.4517 61.3367 65.2633 61.4799C65.9795 61.6231 66.5524 62.0528 66.9343 62.7212C67.173 63.1031 67.364 63.5328 67.3162 64.0102C67.2685 64.249 67.2685 64.5354 67.3162 64.8218C67.4595 66.0154 66.7911 66.7315 65.8362 67.3044C65.693 67.3999 65.502 67.3999 65.3588 67.3522C65.0724 67.2567 64.9291 67.7341 64.5949 67.4477C64.4517 67.3044 64.0698 67.4477 63.8311 67.3522C63.5924 67.2567 63.4014 67.018 63.1149 66.8748C62.9717 66.7793 62.8285 66.827 62.8285 67.0657C62.8285 67.8296 62.8285 68.5457 62.8285 69.3096C62.8285 69.5006 62.7807 69.5961 62.5898 69.5483C62.4943 69.5483 62.3511 69.5483 62.2556 69.5483C62.0169 69.5961 61.9691 69.4528 61.9691 69.2619C61.9214 68.0206 61.9214 66.7793 61.9214 65.538ZM64.7382 62.3393C64.5949 62.3393 64.4517 62.3393 64.3562 62.3393C63.9266 62.2438 63.6401 62.4825 63.4014 62.7689C62.9717 63.3418 62.8285 63.9625 62.8285 64.6786C62.8762 65.538 63.1149 66.1586 64.022 66.4928C64.8337 66.7793 65.8362 66.7315 66.2182 65.5857C66.4569 64.9173 66.5046 64.2012 66.2659 63.4851C66.1227 63.0554 65.884 62.7212 65.5498 62.4347C65.3111 62.2438 64.9769 62.4348 64.7382 62.3393Z" fill="#D13138"/>
<path d="M74.8119 64.5354C74.8119 63.7238 74.8119 62.8644 74.8119 62.0528C74.8119 61.7664 74.8597 61.5754 75.1939 61.6709C75.3848 61.7186 75.6235 61.5277 75.719 61.8141C75.7668 62.0051 75.719 62.1483 75.719 62.3393C75.719 62.387 75.7668 62.4348 75.8145 62.5302C75.8145 62.4825 75.8623 62.4348 75.8623 62.387C76.3874 61.6231 77.0558 61.3844 77.8674 61.6232C78.0584 61.6709 78.2494 61.6709 78.4881 61.6709C78.679 61.6709 78.7268 61.5754 78.7268 61.4322C78.7268 61.098 78.7268 60.7638 78.7268 60.4296C78.7268 59.9999 78.87 59.9044 79.2997 59.8567C79.4907 59.8567 79.6339 59.9044 79.6339 60.1431C79.6339 60.4773 79.6339 60.8115 79.6339 61.1457C79.6339 61.5277 79.7771 61.6709 80.159 61.6709C80.2545 61.6709 80.35 61.6709 80.4455 61.6709C80.9229 61.6709 80.9229 61.6709 80.9229 62.1483C80.9229 62.3393 80.8274 62.387 80.6365 62.387C80.35 62.4348 80.0636 62.2438 79.7771 62.4825C79.4907 62.769 79.6339 63.1031 79.6339 63.3896C79.5861 64.2012 79.6339 65.0606 79.6339 65.8722C79.6339 66.3019 79.7771 66.3973 80.2068 66.4451C80.3023 66.4451 80.3978 66.4451 80.4932 66.4451C80.8274 66.4928 80.9229 66.6838 80.9229 67.0657C80.9229 67.4477 80.6842 67.3045 80.4932 67.3045C79.2042 67.4477 78.679 66.9225 78.7745 65.6335C78.8223 64.6309 78.7745 63.6283 78.7745 62.578C78.7745 62.3393 78.7268 62.2438 78.4881 62.2915C77.9152 62.3393 77.3423 62.387 76.7694 62.4825C76.3874 62.5302 75.719 63.5328 75.719 63.9625C75.719 64.9651 75.719 65.9199 75.719 66.9225C75.719 67.209 75.6713 67.3522 75.3371 67.3045C74.7164 67.2567 74.8119 67.3522 74.8119 66.7793C74.8119 66.0632 74.8119 65.2993 74.8119 64.5354Z" fill="#D13138"/>
<path d="M170.63 64.4397C170.63 64.9172 170.63 65.3946 170.63 65.872C170.63 66.2539 170.582 66.5404 171.108 66.6836C171.442 66.7791 171.442 67.161 171.108 67.352C170.726 67.5907 170.248 67.4952 169.962 67.1133C169.675 66.7314 169.628 66.7313 169.341 66.9701C168.864 67.4475 168.195 67.2565 167.67 67.543C167.05 67.2565 166.286 67.3997 165.951 66.5404C165.617 65.681 165.856 64.7262 166.715 64.392C167.05 64.2488 167.384 64.1533 167.766 64.1055C168.291 63.9623 168.911 64.0578 169.389 63.7713C169.723 63.5804 169.819 63.3417 169.771 62.912C169.723 62.6255 169.389 62.3391 169.102 62.3391C168.72 62.3391 168.339 62.3391 167.957 62.3391C167.431 62.3391 167.288 62.4346 167.097 63.0075C166.954 63.4371 166.524 63.5804 166.142 63.2939C166.095 63.2462 166.047 63.1507 166.047 63.1029C166.333 62.0049 166.906 61.5752 168.004 61.4797C168.339 61.432 168.673 61.4797 169.007 61.4797C169.628 61.4797 170.105 61.7184 170.487 62.2436C170.63 62.4346 170.678 62.5778 170.678 62.7688C170.582 63.3417 170.63 63.9146 170.63 64.4397ZM169.723 65.1081C169.723 65.0604 169.723 64.9649 169.723 64.9172C169.723 64.4875 169.58 64.3442 169.198 64.4875C168.816 64.6307 168.482 64.6307 168.1 64.6307C167.813 64.6784 167.527 64.7262 167.288 64.8217C166.954 64.9649 166.763 65.5855 166.859 66.063C166.906 66.3017 167.336 66.5881 167.67 66.5881C167.861 66.5881 168.004 66.5881 168.195 66.5881C169.102 66.6359 169.723 66.0152 169.723 65.1081Z" fill="#D13138"/>
<path d="M193.833 64.6786C193.26 64.6786 192.639 64.6786 192.066 64.6786C191.78 64.6786 191.732 64.774 191.732 65.0605C191.732 65.9199 192.448 66.636 193.308 66.6837C194.072 66.7315 194.549 66.3973 194.979 65.8244C195.026 65.7289 195.122 65.6334 195.17 65.6334C195.408 65.6334 195.695 65.5857 195.838 65.7289C196.029 65.9676 195.79 66.3018 195.647 66.3973C195.217 66.8747 194.788 67.4953 194.024 67.3999C193.976 67.3999 193.881 67.3521 193.833 67.3999C193.451 67.8295 193.021 67.4953 192.639 67.3999C191.923 67.1611 191.255 66.7792 190.968 65.9676C190.873 65.7289 190.777 65.5379 190.777 65.2992C190.777 65.0605 190.73 64.8695 190.634 64.6308C190.443 64.2011 190.73 63.7237 190.873 63.3418C191.159 62.4824 191.78 61.9095 192.592 61.5753C193.451 61.2411 194.979 61.7186 195.408 62.5302C195.743 63.1031 196.029 63.7237 195.981 64.4399C195.981 64.6786 195.886 64.7263 195.647 64.7263C195.074 64.6786 194.454 64.6786 193.833 64.6786ZM193.308 63.9624C193.785 63.9624 194.263 63.9624 194.74 63.9624C194.931 63.9624 194.979 63.867 194.979 63.676C194.979 63.294 194.788 62.9599 194.549 62.7211C194.31 62.4824 194.119 62.2915 193.737 62.3392C193.499 62.387 193.26 62.3392 193.021 62.3392C192.448 62.387 191.875 62.8644 191.78 63.4373C191.684 63.8192 191.78 63.9624 192.21 63.9624C192.544 63.9624 192.926 63.9624 193.308 63.9624Z" fill="#D13138"/>
<path d="M68.2233 64.4398C68.1755 63.8669 68.1755 63.2463 68.5575 62.7211C69.0826 62.005 69.7033 61.4321 70.6581 61.4798C71.0878 61.4798 71.5175 61.4798 71.9472 61.6231C72.902 62.005 73.3794 62.4824 73.5704 63.485C73.6181 63.8192 73.7614 64.1057 73.7614 64.4876C73.7136 65.5379 73.3317 66.3495 72.5678 67.0657C72.3291 67.3044 72.0426 67.3998 71.7084 67.3998C71.5175 67.3998 71.3265 67.4476 71.1355 67.5431C70.6581 67.7341 70.1807 67.4476 69.751 67.2566C68.6052 66.6837 68.08 65.7766 68.2233 64.4398ZM72.6633 64.2966C72.711 63.9147 72.6155 63.4373 72.3291 62.9598C71.8994 62.3869 71.3265 62.2437 70.6581 62.2915C70.1807 62.3392 69.7988 62.4824 69.5601 62.8644C69.3213 63.1985 69.2259 63.6282 69.1304 64.0102C68.9872 64.5831 69.2259 65.1082 69.3213 65.6334C69.3691 65.9199 69.751 66.2063 70.0375 66.3973C70.2762 66.5405 70.5149 66.6837 70.8013 66.636C71.5652 66.5882 72.0904 66.3018 72.4723 65.5857C72.711 65.2515 72.6633 64.8695 72.6633 64.2966Z" fill="#D13138"/>
<path d="M100.784 64.4875C100.736 64.9172 100.784 65.3468 100.64 65.7765C100.354 66.4927 99.4467 67.3998 98.6829 67.3998C98.4442 67.3998 98.1577 67.6385 97.9667 67.543C97.6803 67.3998 97.3461 67.3998 97.0596 67.3043C96.2003 67.0178 95.6751 66.3017 95.3887 65.3946C95.1022 64.4398 95.2932 63.5804 95.6751 62.6733C96.0093 61.9094 96.6777 61.623 97.3938 61.432C97.9667 61.2888 98.5874 61.3843 99.208 61.5752C99.9719 61.8617 100.736 62.8643 100.784 63.7236C100.784 64.0101 100.784 64.2488 100.784 64.4875ZM96.2958 64.2965C96.2958 64.583 96.248 64.8217 96.2958 65.0127C96.3435 65.3468 96.3912 65.7288 96.5822 65.9675C97.4416 66.8746 98.7306 67.1133 99.4945 65.7765C99.6854 65.4423 99.8287 65.0604 99.8287 64.6785C99.8287 64.2488 99.7809 63.7714 99.6377 63.3417C99.5422 63.0552 99.3035 62.721 99.0171 62.5778C98.3964 62.2914 97.7758 62.2436 97.1074 62.5301C96.9641 62.5778 96.7254 62.5778 96.8209 62.8165C96.3435 63.1985 96.248 63.7714 96.2958 64.2965Z" fill="#D13138"/>
<path d="M113.96 61.432C114.533 61.2888 115.154 61.623 115.631 62.005C116.061 62.3869 116.586 62.8166 116.538 63.5327C116.538 63.7714 116.682 63.9146 116.729 64.1056C116.92 64.965 116.252 66.6359 115.44 67.1611C115.297 67.2566 115.058 67.3043 114.915 67.3521C114.581 67.4476 114.151 67.2566 113.865 67.5908C113.435 67.2566 112.814 67.4476 112.385 67.0656C111.86 66.6359 111.287 65.9675 111.239 65.2992C111.191 65.0604 111.048 64.8695 111.096 64.6785C111.144 63.9624 111.287 63.2462 111.621 62.6733C111.955 62.1482 112.528 61.7662 113.101 61.5275C113.244 61.3843 113.531 61.4798 113.96 61.432ZM115.631 64.6308C115.631 64.3921 115.631 64.2011 115.631 64.0101C115.584 63.5327 115.44 63.103 115.058 62.7211C114.629 62.3391 114.104 62.3392 113.626 62.3392C113.101 62.3392 112.719 62.6256 112.433 63.0553C112.098 63.5804 112.051 64.1056 112.051 64.6785C112.098 65.5379 112.48 66.1108 113.244 66.4927C113.626 66.6837 114.056 66.7314 114.295 66.5882C114.629 66.3972 115.106 66.3495 115.345 65.8243C115.536 65.3946 115.679 65.0127 115.631 64.6308Z" fill="#D13138"/>
<path d="M123.365 64.4875C123.413 64.1055 123.413 63.6759 123.509 63.2462C123.795 62.1481 124.893 61.5275 125.848 61.4797C126.135 61.4797 126.373 61.432 126.66 61.4797C126.898 61.5275 127.089 61.5752 127.28 61.6707C128.092 61.9094 128.378 62.6255 128.713 63.2462C128.904 63.6281 128.904 64.1055 128.904 64.4875C128.904 65.872 128.378 66.5881 127.28 67.3043C127.233 67.352 127.137 67.3997 127.042 67.3997C126.755 67.3997 126.469 67.352 126.23 67.5907C125.609 67.4952 124.989 67.4475 124.511 67.0178C124.368 66.8746 124.225 66.7313 124.082 66.5881C123.556 66.1584 123.365 65.5855 123.365 64.9172C123.365 64.7262 123.365 64.6307 123.365 64.4875ZM127.806 64.5352C127.806 64.392 127.806 64.2965 127.806 64.201C127.901 63.5804 127.615 63.1029 127.185 62.6733C126.803 62.2436 126.325 62.3391 125.896 62.3391C125.848 62.3391 125.8 62.3391 125.705 62.3391C125.275 62.3391 124.941 62.53 124.702 62.8642C124.034 63.8191 124.082 65.49 124.941 66.2062C125.418 66.5881 125.944 66.7791 126.469 66.5881C126.994 66.4449 127.662 66.2539 127.662 65.4423C127.996 65.2036 127.758 64.8217 127.806 64.5352Z" fill="#D13138"/>
<path d="M155.066 64.583C155.114 65.681 154.541 66.4927 153.777 67.1133C153.586 67.2565 153.348 67.3043 153.109 67.3997C152.87 67.4475 152.679 67.3998 152.441 67.543C152.297 67.6385 151.963 67.3997 151.724 67.3997C151.247 67.3997 150.913 67.2088 150.579 66.9701C150.149 66.6836 149.862 66.2539 149.719 65.8243C149.433 65.0126 149.433 64.5352 149.672 63.5804C150.006 62.3391 150.34 61.9572 151.486 61.623C152.059 61.432 152.679 61.4797 153.252 61.7184C153.825 61.9094 154.303 62.1481 154.541 62.721C154.589 62.8643 154.828 62.9597 154.875 63.103C154.971 63.5326 155.019 64.0578 155.066 64.583ZM152.297 62.3391C152.25 62.3391 152.154 62.3391 152.106 62.3391C151.581 62.1959 151.295 62.5778 150.961 62.7688C150.674 62.9597 150.531 63.2939 150.579 63.6759C150.579 63.7714 150.531 63.8191 150.531 63.9146C150.244 64.7739 150.626 65.9675 151.39 66.3972C151.868 66.6836 152.441 66.7791 152.87 66.5404C153.443 66.2062 153.968 65.8243 154.016 65.0126C154.112 64.0101 154.112 63.7236 153.539 62.8165C153.348 62.5301 153.157 62.3868 152.87 62.3391C152.632 62.3391 152.441 62.3391 152.297 62.3391Z" fill="#D13138"/>
<path d="M37.4298 61.4799C38.0027 61.4322 38.4801 61.4799 38.9575 61.8141C39.244 62.0051 39.4349 62.2438 39.6259 62.5302C39.7691 62.7689 39.6737 62.9599 39.7214 63.1986C39.4827 63.2464 39.1962 63.2464 38.9575 63.2464C38.9098 63.2464 38.9098 63.1031 38.862 63.0554C38.6233 62.8167 38.4324 62.4347 38.1936 62.387C37.7162 62.2915 37.1911 62.387 36.7136 62.4825C36.6182 62.4825 36.284 62.4825 36.3317 62.8167C36.3795 63.1031 36.284 63.4373 36.6182 63.5805C37.0001 63.7238 37.4298 63.8193 37.8117 63.9625C38.3369 64.1057 38.862 64.2012 39.3872 64.4877C39.8646 64.7264 39.9601 65.156 40.1033 65.5857C40.2466 65.9677 40.0078 66.3019 39.7691 66.5883C39.3395 67.018 38.9098 67.4954 38.2414 67.3999C37.7162 67.8773 37.1433 67.3522 36.6182 67.3522C36.1407 67.3522 35.8543 66.8748 35.5201 66.5883C35.3291 66.4451 35.3291 66.2064 35.3769 66.0154C35.3769 65.8722 35.4246 65.6335 35.4723 65.6335C35.7111 65.6335 35.9498 65.4902 36.1407 65.7289C36.1885 65.7767 36.284 65.8722 36.284 65.9199C36.4749 66.4928 37.0001 66.5406 37.4298 66.6361C37.7162 66.7315 38.0982 66.6838 38.4324 66.6361C38.8143 66.5883 39.1485 66.1586 39.1962 65.7767C39.1962 65.4425 39.0053 65.156 38.6233 65.0128C37.9549 64.7741 37.2865 64.6786 36.6182 64.4877C35.8065 64.2489 35.4246 63.7238 35.4723 62.9599C35.5201 62.4347 35.7588 62.1006 36.1885 61.8141C36.4749 61.5276 36.9523 61.3844 37.4298 61.4799Z" fill="#D13138"/>
<path d="M43.159 61.4321C43.4455 61.4321 43.7319 61.4799 44.0661 61.5754C44.5913 61.7186 44.9732 61.9573 45.1164 62.5302C45.1642 62.7689 45.4984 63.0076 45.1642 63.1986C44.9255 63.3418 44.3048 63.1986 44.2093 62.9599C44.0661 62.387 43.6364 62.2915 43.1113 62.3392C42.8248 62.3392 42.5861 62.3392 42.2997 62.3392C42.0609 62.3392 41.7267 62.6257 41.6313 62.8644C41.5358 63.1508 41.7745 63.2941 41.9177 63.4373C42.1087 63.5805 42.8726 63.867 43.2068 63.9625C43.7319 64.1057 44.3048 64.1534 44.7822 64.4876C44.9732 64.6309 45.1164 64.7263 45.2119 64.9651C45.7371 66.0154 45.0209 67.2567 43.8751 67.3999C43.6842 67.3999 43.4932 67.4476 43.3022 67.5431C43.0635 67.6864 42.1564 67.4476 41.679 67.2089C41.1538 66.9702 40.8196 66.5405 40.5809 66.0631C40.4377 65.7767 40.5809 65.6334 40.9151 65.5857C41.2493 65.538 41.3926 65.7289 41.5835 65.9676C42.2042 66.8747 43.3022 66.827 43.9706 66.4928C44.1616 66.3973 44.4003 66.1586 44.4958 65.9676C44.639 65.6334 44.3526 65.156 43.9706 65.1083C43.4455 65.0128 42.968 64.7741 42.4429 64.6786C41.87 64.6309 41.2971 64.4399 40.9629 63.867C40.5332 63.1031 40.8674 62.1005 41.5835 61.8618C42.2519 61.5754 42.3951 61.4321 43.159 61.4321Z" fill="#D13138"/>
<path d="M129.954 64.4399C129.954 63.6283 129.954 62.769 129.954 61.9573C129.954 61.6709 130.049 61.6232 130.336 61.6232C130.431 61.6232 130.527 61.6232 130.622 61.6232C130.909 61.5754 130.861 61.7664 130.909 61.9573C130.956 62.1961 131.1 62.2438 131.243 62.1006C131.72 61.4322 132.389 61.4322 133.105 61.4799C134.012 61.5277 134.633 62.1483 134.633 63.0077C134.633 64.058 134.633 65.1561 134.633 66.2064C134.633 66.3974 134.585 66.6361 134.633 66.827C134.776 67.1612 134.776 67.3522 134.394 67.3999C133.964 67.4477 133.773 67.3045 133.773 66.9225C133.773 65.8722 133.773 64.8219 133.773 63.7716C133.773 63.5806 133.773 63.3896 133.773 63.2464C133.725 62.6257 133.487 62.387 132.866 62.387C132.723 62.387 132.58 62.387 132.436 62.387C132.055 62.3393 131.625 62.4348 131.434 62.7212C131.195 63.0554 130.909 63.3419 130.909 63.867C130.956 64.9174 130.909 66.0154 130.956 67.0658C130.956 67.3522 130.861 67.3999 130.574 67.3999C130.527 67.3999 130.431 67.3999 130.384 67.3999C130.145 67.4477 130.002 67.4 130.002 67.0658C130.002 66.2064 129.954 65.347 129.954 64.4399Z" fill="#D13138"/>
<path d="M118.162 64.6785C118.162 64.1056 118.162 63.5327 118.162 62.9598C118.162 62.4346 118.066 62.3869 117.541 62.3391C117.063 62.2914 117.063 62.2914 117.063 61.8617C117.063 61.6708 117.159 61.623 117.35 61.623C117.445 61.623 117.541 61.623 117.636 61.623C118.018 61.5753 118.162 61.4798 118.162 61.0979C118.162 60.7637 118.162 60.4295 118.162 60.0953C118.162 59.8566 118.209 59.7611 118.448 59.8088C118.543 59.8088 118.687 59.8088 118.782 59.8088C118.973 59.8088 119.021 59.8566 119.021 60.0475C119.021 60.4772 119.021 60.9069 119.021 61.2888C119.021 61.5275 119.116 61.5753 119.355 61.5753C119.498 61.5753 119.642 61.5753 119.785 61.5753C120.071 61.5275 120.119 61.6708 120.119 61.9572C120.119 62.1959 120.071 62.3391 119.785 62.3391C119.546 62.3391 119.212 62.2914 119.116 62.3869C118.973 62.5778 119.021 62.912 119.021 63.1508C119.021 64.0579 119.021 64.965 119.021 65.8243C119.021 66.3495 119.116 66.3972 119.642 66.445C119.785 66.445 120.023 66.3495 120.071 66.5882C120.119 66.8269 120.071 67.0656 120.023 67.3043C120.023 67.3521 119.88 67.3521 119.785 67.3521C119.498 67.3521 119.26 67.3521 118.973 67.3521C118.591 67.3521 118.066 66.8746 118.066 66.445C118.162 65.8721 118.162 65.2514 118.162 64.6785Z" fill="#D13138"/>
<path d="M49.7472 63.3419C49.7472 62.2438 49.7472 61.1935 49.7472 60.0954C49.7472 59.9522 49.7472 59.8567 49.7472 59.7612C49.6995 59.5225 49.8904 59.4748 49.9859 59.3315C50.1291 59.5703 50.3201 59.2838 50.4156 59.3793C50.5588 59.5225 50.8453 59.4748 50.7975 59.809C50.7498 62.2438 50.7975 64.6309 50.7975 67.0658C50.7975 67.3045 50.702 67.3522 50.4633 67.3522C50.2724 67.3522 50.0814 67.3522 49.9382 67.3522C49.7472 67.3522 49.6995 67.2567 49.6995 67.0658C49.7472 65.8245 49.7472 64.5832 49.7472 63.3419Z" fill="#D13138"/>
<path d="M162.371 64.3921C162.371 63.676 162.371 62.9599 162.371 62.2438C162.371 61.5754 162.371 61.5754 163.039 61.6231C163.23 61.6231 163.278 61.7663 163.278 61.9095C163.278 62.0528 163.278 62.196 163.278 62.3392C163.278 62.387 163.326 62.4347 163.326 62.4825C163.373 62.4347 163.421 62.4347 163.469 62.387C163.803 62.1483 164.09 61.8618 164.424 61.6231C164.471 61.5754 164.519 61.5276 164.567 61.4799C164.853 61.4321 165.14 61.4321 165.426 61.4321C165.426 61.6708 165.522 61.9573 165.474 62.196C165.426 62.387 165.235 62.5302 164.997 62.4347C164.567 62.2437 164.376 62.7689 163.994 62.8167C163.899 63.1986 163.564 63.4373 163.564 63.867C163.517 64.3921 163.421 64.8696 163.421 65.3947C163.373 65.9199 163.421 66.3973 163.421 66.9225C163.421 67.0657 163.517 67.3044 163.182 67.3044C162.896 67.3044 162.657 67.2567 162.514 67.018C162.466 66.8747 162.514 66.7315 162.514 66.5883C162.371 65.8722 162.371 65.156 162.371 64.3921Z" fill="#D13138"/>
<path d="M92.5243 61.623C92.9062 61.5275 92.9062 61.7662 92.9062 62.0527C92.9062 62.1481 92.954 62.2436 93.0495 62.2914C93.0972 62.2914 93.1927 62.2436 93.2882 62.1959C93.6224 61.9094 93.8611 61.5275 94.3385 61.4798C94.4817 61.4798 94.6727 61.432 94.8159 61.3843C94.8637 61.3843 94.9591 61.3843 94.9591 61.3843C95.0069 61.623 95.0546 61.8617 95.0069 62.0527C95.0069 62.1959 94.8159 62.2914 94.7204 62.4346C94.7204 62.4346 94.6727 62.4346 94.625 62.4346C94.052 62.2914 93.7656 62.7211 93.4314 63.0553C93.0495 63.4849 92.9062 63.9623 92.8585 64.5352C92.8107 65.3469 92.8585 66.1585 92.8585 66.9223C92.8585 67.0656 92.954 67.3043 92.6198 67.3043C92.3333 67.3043 92.0946 67.3043 91.9514 67.0178C91.9037 66.8746 91.9514 66.7314 91.9514 66.5882C91.9514 65.0604 91.9514 63.5327 91.9514 62.0527C91.9991 61.623 91.9991 61.623 92.5243 61.623Z" fill="#D13138"/>
<path d="M146.282 64.44C146.282 63.6283 146.282 62.769 146.282 61.9574C146.282 61.6709 146.377 61.6232 146.664 61.6232C146.711 61.6232 146.807 61.6232 146.855 61.6232C147.093 61.5754 147.237 61.6232 147.237 61.9574C147.237 62.1006 147.237 62.2438 147.237 62.387C147.237 62.4348 147.38 62.4825 147.38 62.4348C147.619 62.2438 147.809 62.0051 148 61.8141C148.191 61.6709 148.43 61.4799 148.669 61.4322C149.242 61.289 149.48 61.5277 149.385 62.1006C149.337 62.3393 149.194 62.4825 148.908 62.4825C147.857 62.578 147.714 62.8645 147.38 63.8671C147.141 64.6787 147.284 65.4903 147.237 66.3019C147.237 66.5406 147.237 66.7793 147.237 67.018C147.237 67.209 147.237 67.3522 146.95 67.3522C146.855 67.3522 146.759 67.3522 146.664 67.3522C146.425 67.4 146.282 67.3045 146.282 67.018C146.282 66.2064 146.282 65.2993 146.282 64.44Z" fill="#D13138"/>
<path d="M121.217 64.3921C121.217 63.6282 121.217 62.9121 121.217 62.1482C121.217 61.623 121.217 61.623 121.79 61.623C122.268 61.623 122.268 61.623 122.268 62.1005C122.268 63.6282 122.268 65.156 122.268 66.636C122.268 67.3044 122.172 67.3998 121.504 67.3521C121.265 67.3521 121.17 67.3044 121.217 67.0656C121.217 66.2063 121.217 65.2992 121.217 64.3921Z" fill="#D13138"/>
<path d="M33.9924 64.4876C33.9924 65.2992 33.9924 66.1585 33.9924 66.9702C33.9924 67.1134 34.0879 67.3521 33.8014 67.3521C33.515 67.3521 33.2763 67.3521 33.133 67.0656C33.0853 66.9702 33.133 66.8269 33.133 66.7314C33.133 65.156 33.133 63.5805 33.133 62.005C33.133 61.623 33.2763 61.623 33.5627 61.623C34.0401 61.623 34.0401 61.623 34.0401 62.1005C33.9924 62.9121 33.9924 63.676 33.9924 64.4876Z" fill="#D13138"/>
<path d="M121.169 60.0476C121.169 59.4269 121.313 59.2837 121.742 59.2837C122.172 59.2837 122.268 59.4747 122.268 59.9998C122.268 60.334 122.077 60.6205 121.886 60.525C121.695 60.4295 121.456 60.5727 121.36 60.4295C121.265 60.2863 121.217 60.0953 121.169 60.0476Z" fill="#D13138"/>
<path d="M33.9923 59.6657C33.9923 59.9522 33.9923 60.0954 33.9923 60.2386C33.9445 60.4296 33.6581 60.6206 33.4671 60.5728C33.3239 60.5251 33.1807 60.3819 33.1329 60.2386C33.0374 59.9522 33.1329 59.427 33.3239 59.3793C33.5149 59.3315 33.7536 59.2838 33.8968 59.3315C33.9923 59.3793 33.9923 59.618 33.9923 59.6657Z" fill="#D13138"/>
</svg>
